HIERARCHY
ROOT Hips
{
	OFFSET 0.00000 0.00000 0.00000
	CHANNELS 6 Xposition Yposition Zposition Zrotation Yrotation Xrotation 
	JOINT LHipJoint
	{
		OFFSET 0 0 0
		CHANNELS 3 Zrotation Yrotation Xrotation
		JOINT LeftHip
		{
			OFFSET 1.34019 -1.87553 0.90315
			CHANNELS 3 Zrotation Yrotation Xrotation
			JOINT LeftKnee
			{
				OFFSET 2.55316 -7.01474 0.00000
				CHANNELS 3 Zrotation Yrotation Xrotation
				JOINT LeftAnkle
				{
					OFFSET 2.64657 -7.27139 0.00000
					CHANNELS 3 Zrotation Yrotation Xrotation
					JOINT LeftToe
					{
						OFFSET 0.24207 -0.66507 2.14489
						CHANNELS 3 Zrotation Yrotation Xrotation
						End Site
						{
							OFFSET 0.00000 -0.00000 1.12451
						}
					}
				}
			}
		}
	}
	JOINT RHipJoint
	{
		OFFSET 0 0 0
		CHANNELS 3 Zrotation Yrotation Xrotation
		JOINT RightHip
		{
			OFFSET -1.28320 -1.87553 0.90315
			CHANNELS 3 Zrotation Yrotation Xrotation
			JOINT RightKnee
			{
				OFFSET -2.60484 -7.15674 0.00000
				CHANNELS 3 Zrotation Yrotation Xrotation
				JOINT RightAnkle
				{
					OFFSET -2.60296 -7.15159 0.00000
					CHANNELS 3 Zrotation Yrotation Xrotation
					JOINT RightToe
					{
						OFFSET -0.31082 -0.85398 2.28998
						CHANNELS 3 Zrotation Yrotation Xrotation
						End Site
						{
							OFFSET -0.00000 -0.00000 1.21611
						}
					}
				}
			}
		}
	}
	JOINT lowerback
	{
		OFFSET 0 0 0
		CHANNELS 3 Zrotation Yrotation Xrotation
		JOINT Chest
		{
			OFFSET -0.00160 2.05581 -0.15156
			CHANNELS 3 Zrotation Yrotation Xrotation
			JOINT Chest2
			{
				OFFSET 0.04594 2.06326 -0.01617
				CHANNELS 3 Zrotation Yrotation Xrotation
				JOINT lowerneck
				{
					OFFSET 0 0 0
					CHANNELS 3 Zrotation Yrotation Xrotation
					JOINT Neck
					{
						OFFSET 0.03753 1.73883 0.26751
						CHANNELS 3 Zrotation Yrotation Xrotation
						JOINT Head
						{
							OFFSET -0.09795 1.76129 -0.31794
							CHANNELS 3 Zrotation Yrotation Xrotation
							End Site
							{
								OFFSET -0.03611 1.79987 -0.13846
							}
						}
					}
				}
				JOINT LeftCollar
				{
					OFFSET 0 0 0
					CHANNELS 3 Zrotation Yrotation Xrotation
					JOINT LeftShoulder
					{
						OFFSET 3.30667 1.29205 -0.22445
CHANNELS 3 Zrotation Xrotation Yrotation
						JOINT LeftElbow
						{
OFFSET 0 -4.927850 -0.000000
CHANNELS 3 Zrotation Xrotation Yrotation
							JOINT LeftWrist
							{
OFFSET 0 -3.440520 0.000000
CHANNELS 3 Zrotation Xrotation Yrotation
								JOINT lhand
								{
									OFFSET 0 0 0
CHANNELS 3 Zrotation Xrotation Yrotation
									JOINT LFingers
									{
OFFSET 0 -0.654330 0.000000
CHANNELS 3 Zrotation Xrotation Yrotation
										End Site
										{
OFFSET 0 -0.527530 0.000000
										}
									}
								}
								JOINT LThumb
								{
OFFSET 0 0.000000 0.000000
CHANNELS 3 Zrotation Xrotation Yrotation
									End Site
									{
OFFSET 0 -0.535590 0.535590
									}
								}
							}
						}
					}
				}
				JOINT RightCollar
				{
					OFFSET 0 0 0
					CHANNELS 3 Zrotation Yrotation Xrotation
					JOINT RightShoulder
					{
						OFFSET -3.20032 1.49783 -0.27688
CHANNELS 3 Zrotation Xrotation Yrotation
						JOINT RightElbow
						{
OFFSET 0 -5.091810 -0.000000
CHANNELS 3 Zrotation Xrotation Yrotation
							JOINT RightWrist
							{
OFFSET 0 -3.498650 -0.000000
CHANNELS 3 Zrotation Xrotation Yrotation
								JOINT rhand
								{
									OFFSET 0 0 0
CHANNELS 3 Zrotation Xrotation Yrotation
									JOINT RFingers
									{
OFFSET 0 -0.666410 0.000000
CHANNELS 3 Zrotation Xrotation Yrotation
										End Site
										{
OFFSET 0 -0.537280 0.000000
										}
									}
								}
								JOINT RThumb
								{
OFFSET 0 0.000000 0.000000
CHANNELS 3 Zrotation Xrotation Yrotation
									End Site
									{
OFFSET 0 -0.545480 0.545480
									}
								}
							}
						}
					}
				}
			}
		}
	}
}
MOTION
Frames: 4
Frame Time: 0.008333333333333333
1.404600 16.476500 4.146100 -1.155900 -0.425500 -7.091600 0.000000 0.000000 0.000000 -11.688800 6.848000 -16.350200 8.716000 16.621400 55.102700 1.946900 4.673500 -28.366100 0.303200 -3.540300 -9.786900 0.000000 0.000000 0.000000 14.434200 -3.902900 -16.116600 -9.565200 -17.158000 58.025100 -2.198900 -6.455200 -30.902100 -0.413100 4.125800 -11.430800 -0.347600 0.258100 9.453300 2.207400 0.390800 1.948300 2.438300 0.204000 -3.294100 4.663900 1.680700 -23.004000 -6.530400 2.342800 19.703800 -2.742700 0.631700 10.224900 -0.000000 -0.000000 0.000000 52.229200 -39.641800 3.395800 55.720000 -55.057200 30.805300 -13.442100 14.026900 2.470100 0.000000 0.000000 0.000000 -7.125000 0.000000 0.000000 -29.442000 26.749300 -14.988900 -0.000000 -0.000000 0.000000 -67.882600 -42.259300 -1.272200 -53.692000 -54.380200 -29.149800 11.255700 2.384700 1.571100 0.000000 0.000000 0.000000 7.125000 0.000000 -0.000000 29.076900 30.499700 11.698700
1.403913 16.476829 4.147026 -1.158888 -0.427293 -7.094857 0.000000 0.000000 0.000000 -11.683302 6.852841 -16.340219 8.714984 16.620743 55.099174 1.946691 4.680283 -28.368162 0.304156 -3.545828 -9.802350 0.000000 0.000000 0.000000 14.440625 -3.902033 -16.105065 -9.563198 -17.156805 58.018287 -2.198093 -6.461565 -30.900785 -0.412921 4.124963 -11.428469 -0.346733 0.259325 9.449445 2.207788 0.392444 1.952663 2.438001 0.204717 -3.287466 4.644984 1.673827 -23.025486 -6.512141 2.334194 19.699108 -2.734273 0.628204 10.226036 0.000000 0.000000 0.000000 52.235207 -39.663107 3.413431 55.681779 -55.044918 30.773982 -13.419000 14.064941 2.496218 0.000000 0.000000 0.000000 -7.125000 0.000000 0.000000 -29.420066 26.727396 -14.992127 0.000000 0.000000 0.000000 -67.866194 -42.255624 -1.282898 -53.705418 -54.384862 -29.160677 11.254505 2.342654 1.601073 0.000000 0.000000 0.000000 7.125000 0.000000 0.000000 29.084729 30.526475 11.680890
1.403225 16.477157 4.147953 -1.161877 -0.429086 -7.098115 0.000000 0.000000 0.000000 -11.677803 6.857682 -16.330238 8.713968 16.620085 55.095648 1.946482 4.687067 -28.370224 0.305113 -3.551357 -9.817799 0.000000 0.000000 0.000000 14.447050 -3.901167 -16.093530 -9.561196 -17.155609 58.011473 -2.197286 -6.467930 -30.899470 -0.412741 4.124127 -11.426138 -0.345867 0.260550 9.445590 2.208177 0.394087 1.957026 2.437702 0.205434 -3.280832 4.626068 1.666954 -23.046972 -6.493883 2.325587 19.694417 -2.725846 0.624707 10.227171 0.000000 0.000000 0.000000 52.241213 -39.684413 3.431062 55.643559 -55.032636 30.742665 -13.395901 14.102982 2.522336 0.000000 0.000000 0.000000 -7.125000 0.000000 0.000000 -29.398132 26.705491 -14.995355 0.000000 0.000000 0.000000 -67.849788 -42.251949 -1.293596 -53.718835 -54.389524 -29.171555 11.253309 2.300609 1.631046 0.000000 0.000000 0.000000 7.125000 0.000000 0.000000 29.092559 30.553251 11.663079
1.402538 16.477486 4.148879 -1.164865 -0.430879 -7.101372 0.000000 0.000000 0.000000 -11.672305 6.862523 -16.320257 8.712952 16.619428 55.092121 1.946272 4.693850 -28.372286 0.306069 -3.556885 -9.833249 0.000000 0.000000 0.000000 14.453475 -3.900300 -16.081995 -9.559193 -17.154414 58.004660 -2.196479 -6.474295 -30.898155 -0.412562 4.123290 -11.423807 -0.345000 0.261776 9.441735 2.208565 0.395731 1.961389 2.437404 0.206152 -3.274198 4.607152 1.660081 -23.068458 -6.475624 2.316981 19.689725 -2.717419 0.621211 10.228307 0.000000 0.000000 0.000000 52.247220 -39.705720 3.448693 55.605338 -55.020354 30.711347 -13.372801 14.141024 2.548454 0.000000 0.000000 0.000000 -7.125000 0.000000 0.000000 -29.376197 26.683587 -14.998582 0.000000 0.000000 0.000000 -67.833382 -42.248273 -1.304294 -53.732253 -54.394185 -29.182432 11.252114 2.258563 1.661018 0.000000 0.000000 0.000000 7.125000 0.000000 0.000000 29.100388 30.580026 11.645269
